<svg width="8" height="5" viewBox="0 0 8 5" fill="none" xmlns="http://www.w3.org/2000/svg">
<path d="M6.71102 0.213152L3.90865 3.21053L1.10627 0.213152C0.983155 0.0859695 0.818262 0.0155948 0.647106 0.0171856C0.475949 0.0187764 0.312225 0.0922054 0.191194 0.221657C0.0701639 0.351109 0.00151198 0.526227 2.46767e-05 0.709293C-0.00146262 0.892358 0.0643337 1.06873 0.183242 1.20041L3.44713 4.69141C3.56955 4.8223 3.73555 4.89583 3.90865 4.89583C4.08174 4.89583 4.24775 4.8223 4.37016 4.69141L7.63405 1.20041C7.69639 1.136 7.74613 1.05896 7.78034 0.973775C7.81455 0.888592 7.83256 0.796974 7.83331 0.704267C7.83406 0.611561 7.81755 0.519622 7.78472 0.433816C7.7519 0.348009 7.70343 0.270054 7.64214 0.204498C7.58085 0.138942 7.50796 0.0870987 7.42774 0.0519926C7.34752 0.0168864 7.26156 -0.000779233 7.17488 2.63618e-05C7.08821 0.000831957 7.00255 0.0200927 6.92291 0.0566847C6.84327 0.0932767 6.77124 0.146467 6.71102 0.213152Z" fill="#A7A7A7"/>
</svg>
