<svg width="331" height="32" viewBox="0 0 331 32" fill="none" xmlns="http://www.w3.org/2000/svg">
<path d="M0.0915222 21.6104L21.2589 15.9458L47.6667 0.368164L69.8056 3.5545L91.9445 17.7159L117.852 9.92719L140.933 15.9458L164.014 8.20034L187.566 3.19201L210.176 14.4607L235.141 4.69443L259.164 6.74077L281.774 1.68951L305.326 14.2103L330.762 4.69451" stroke="#53E285" stroke-width="0.708075"/>
<path d="M0.0915222 27.4585L21.2589 28.9505L47.6667 27.4585L69.8056 30.8155L91.9445 26.3395L117.852 30.0695L140.933 26.7126L164.014 28.9962L187.566 22.9737L210.176 27.3859L235.141 22.3186L259.164 24.4745L281.774 22.8827L305.326 23.3922L330.762 25.3026" stroke="#FFB950" stroke-width="0.708075"/>
</svg>
