<svg width="42" height="42" viewBox="0 0 42 42" fill="none" xmlns="http://www.w3.org/2000/svg">
<path d="M35.2205 18.2285C36.0288 21.2451 35.9244 24.4337 34.9205 27.391C33.9167 30.3483 32.0584 32.9415 29.5807 34.8427C27.103 36.7439 24.1172 37.8676 21.0009 38.0719C17.8845 38.2761 14.7776 37.5517 12.073 35.9902C9.36834 34.4287 7.18749 32.1002 5.80621 29.2992C4.42492 26.4983 3.90524 23.3506 4.31288 20.2543C4.72052 17.158 6.03717 14.2521 8.09633 11.904C10.1555 9.556 12.8647 7.87132 15.8813 7.06302L19.9682 22.3153L35.2205 18.2285Z" fill="#F15060"/>
<path d="M17.5988 4.08686C19.6018 3.55017 21.6909 3.41324 23.7467 3.6839C25.8026 3.95457 27.7851 4.62751 29.5809 5.66432C31.3767 6.70113 32.9507 8.0815 34.213 9.72662C35.4754 11.3717 36.4013 13.2494 36.938 15.2523L21.6857 19.3392L17.5988 4.08686Z" fill="#FF7482"/>
</svg>
