<svg width="331" height="37" viewBox="0 0 331 37" fill="none" xmlns="http://www.w3.org/2000/svg">
<path d="M0 31.2847C0 29.7205 1.26806 28.4524 2.8323 28.4524H12.0373C13.6015 28.4524 14.8696 29.7205 14.8696 31.2847V34.117C14.8696 35.6812 13.6015 36.9493 12.0373 36.9493H2.8323C1.26806 36.9493 0 35.6812 0 34.117V31.2847Z" fill="#F5F5F5"/>
<path d="M17.7024 24.9119C17.7024 23.3477 18.9705 22.0796 20.5347 22.0796H29.7397C31.3039 22.0796 32.572 23.3477 32.572 24.9119V34.1169C32.572 35.6811 31.3039 36.9492 29.7397 36.9492H20.5347C18.9705 36.9492 17.7024 35.6811 17.7024 34.1169V24.9119Z" fill="#F5F5F5"/>
<path d="M35.4043 28.4519C35.4043 26.8877 36.6724 25.6196 38.2366 25.6196H47.4416C49.0058 25.6196 50.2739 26.8877 50.2739 28.4519V34.1165C50.2739 35.6808 49.0058 36.9488 47.4416 36.9488H38.2366C36.6724 36.9488 35.4043 35.6808 35.4043 34.1165V28.4519Z" fill="#F5F5F5"/>
<path d="M53.1057 31.2847C53.1057 29.7205 54.3738 28.4524 55.938 28.4524H65.143C66.7072 28.4524 67.9753 29.7205 67.9753 31.2847V34.117C67.9753 35.6812 66.7072 36.9493 65.143 36.9493H55.938C54.3738 36.9493 53.1057 35.6812 53.1057 34.117V31.2847Z" fill="#F5F5F5"/>
<path d="M70.8076 26.3279C70.8076 24.7637 72.0757 23.4956 73.6399 23.4956H82.8449C84.4091 23.4956 85.6772 24.7637 85.6772 26.3279V34.1167C85.6772 35.681 84.4091 36.949 82.8449 36.949H73.6399C72.0757 36.949 70.8076 35.681 70.8076 34.1167V26.3279Z" fill="#F5F5F5"/>
<path d="M88.5095 19.2471C88.5095 17.6829 89.7776 16.4148 91.3418 16.4148H100.547C102.111 16.4148 103.379 17.6829 103.379 19.2471V34.1167C103.379 35.6809 102.111 36.949 100.547 36.949H91.3418C89.7776 36.949 88.5095 35.6809 88.5095 34.1167V19.2471Z" fill="#F5F5F5"/>
<path d="M106.212 22.7876C106.212 21.2234 107.48 19.9553 109.044 19.9553H118.249C119.813 19.9553 121.081 21.2234 121.081 22.7876V34.1168C121.081 35.681 119.813 36.9491 118.249 36.9491H109.044C107.48 36.9491 106.212 35.681 106.212 34.1168V22.7876Z" fill="#F5F5F5"/>
<path d="M123.913 19.2471C123.913 17.6829 125.181 16.4148 126.746 16.4148H135.951C137.515 16.4148 138.783 17.6829 138.783 19.2471V34.1167C138.783 35.6809 137.515 36.949 135.951 36.949H126.746C125.181 36.949 123.913 35.6809 123.913 34.1167V19.2471Z" fill="#F5F5F5"/>
<path d="M140.907 28.4519C140.907 26.8877 142.175 25.6196 143.74 25.6196H152.945C154.509 25.6196 155.777 26.8877 155.777 28.4519V34.1165C155.777 35.6808 154.509 36.9488 152.945 36.9488H143.74C142.175 36.9488 140.907 35.6808 140.907 34.1165V28.4519Z" fill="#F5F5F5"/>
<path d="M158.609 26.3279C158.609 24.7637 159.877 23.4956 161.441 23.4956H170.646C172.21 23.4956 173.478 24.7637 173.478 26.3279V34.1167C173.478 35.681 172.21 36.949 170.646 36.949H161.441C159.877 36.949 158.609 35.681 158.609 34.1167V26.3279Z" fill="#FFD6D6"/>
<path d="M176.311 31.2847C176.311 29.7205 177.579 28.4524 179.143 28.4524H188.348C189.913 28.4524 191.181 29.7205 191.181 31.2847V34.117C191.181 35.6812 189.913 36.9493 188.348 36.9493H179.143C177.579 36.9493 176.311 35.6812 176.311 34.117V31.2847Z" fill="#FFD6D6"/>
<path d="M193.305 28.4519C193.305 26.8877 194.573 25.6196 196.137 25.6196H205.342C206.906 25.6196 208.174 26.8877 208.174 28.4519V34.1165C208.174 35.6808 206.906 36.9488 205.342 36.9488H196.137C194.573 36.9488 193.305 35.6808 193.305 34.1165V28.4519Z" fill="#FFD6D6"/>
<path d="M211.007 19.2471C211.007 17.6829 212.275 16.4148 213.839 16.4148H223.044C224.608 16.4148 225.876 17.6829 225.876 19.2471V34.1167C225.876 35.6809 224.608 36.949 223.044 36.949H213.839C212.275 36.949 211.007 35.6809 211.007 34.1167V19.2471Z" fill="#F5F5F5"/>
<path d="M264.112 19.2471C264.112 17.6829 265.38 16.4148 266.944 16.4148H276.149C277.714 16.4148 278.982 17.6829 278.982 19.2471V34.1167C278.982 35.6809 277.714 36.949 276.149 36.949H266.944C265.38 36.949 264.112 35.6809 264.112 34.1167V19.2471Z" fill="#F5F5F5"/>
<path d="M315.802 19.2471C315.802 17.6829 317.07 16.4148 318.634 16.4148H327.839C329.403 16.4148 330.671 17.6829 330.671 19.2471V34.1167C330.671 35.6809 329.403 36.949 327.839 36.949H318.634C317.07 36.949 315.802 35.6809 315.802 34.1167V19.2471Z" fill="#F5F5F5"/>
<path d="M228.708 24.9119C228.708 23.3477 229.976 22.0796 231.541 22.0796H240.746C242.31 22.0796 243.578 23.3477 243.578 24.9119V34.1169C243.578 35.6811 242.31 36.9492 240.746 36.9492H231.541C229.976 36.9492 228.708 35.6811 228.708 34.1169V24.9119Z" fill="#F5F5F5"/>
<path d="M281.814 24.9119C281.814 23.3477 283.082 22.0796 284.646 22.0796H293.851C295.416 22.0796 296.684 23.3477 296.684 24.9119V34.1169C296.684 35.6811 295.416 36.9492 293.851 36.9492H284.646C283.082 36.9492 281.814 35.6811 281.814 34.1169V24.9119Z" fill="#F5F5F5"/>
<path d="M246.41 28.4519C246.41 26.8877 247.678 25.6196 249.243 25.6196H258.448C260.012 25.6196 261.28 26.8877 261.28 28.4519V34.1165C261.28 35.6808 260.012 36.9488 258.448 36.9488H249.243C247.678 36.9488 246.41 35.6808 246.41 34.1165V28.4519Z" fill="#F5F5F5"/>
<path d="M299.516 28.4519C299.516 26.8877 300.784 25.6196 302.348 25.6196H311.553C313.117 25.6196 314.386 26.8877 314.386 28.4519V34.1165C314.386 35.6808 313.117 36.9488 311.553 36.9488H302.348C300.784 36.9488 299.516 35.6808 299.516 34.1165V28.4519Z" fill="#F5F5F5"/>
<path d="M7.78906 20.3093L23.6986 14.6447L43.5468 20.3093L60.1866 23.4956L76.8263 16.4148L96.2984 8.6261L113.646 14.6447L130.994 6.89926L148.696 1.89093L165.69 13.1597L184.454 3.39334L202.51 5.43968L219.503 0.388428L237.205 12.9092L256.323 3.39343" stroke="#53E285" stroke-width="0.708075"/>
<path d="M165.69 19.2476L184.808 24.9122L201.094 22.4339" stroke="#FF6F6F" stroke-width="0.708075"/>
</svg>
