<svg width="23" height="23" viewBox="0 0 23 23" fill="none" xmlns="http://www.w3.org/2000/svg">
<path d="M11.25 2.025C14.25 2.025 14.61 2.03625 15.7958 2.09025C16.5093 2.09867 17.2162 2.22984 17.8853 2.478C18.3737 2.65832 18.8156 2.94588 19.1783 3.3195C19.5519 3.68218 19.8394 4.12402 20.0198 4.6125C20.2679 5.2816 20.3991 5.98841 20.4075 6.702C20.4615 7.89 20.475 8.25 20.475 11.25C20.475 14.25 20.4638 14.61 20.4098 15.7958C20.4013 16.5093 20.2702 17.2162 20.022 17.8853C19.8347 18.3702 19.5481 18.8106 19.1805 19.1782C18.8129 19.5458 18.3725 19.8325 17.8875 20.0198C17.2184 20.2679 16.5116 20.3991 15.798 20.4075C14.6123 20.4615 14.256 20.4728 11.2523 20.4728C8.2485 20.4728 7.89225 20.4615 6.7065 20.4075C5.99291 20.3991 5.2861 20.2679 4.617 20.0198C4.12852 19.8394 3.68668 19.5519 3.324 19.1782C2.95038 18.8156 2.66282 18.3737 2.4825 17.8853C2.23434 17.2162 2.10317 16.5093 2.09475 15.7958C2.0385 14.61 2.025 14.2537 2.025 11.25C2.025 8.24625 2.03625 7.89 2.09025 6.70425C2.09867 5.99066 2.22984 5.28385 2.478 4.61475C2.65898 4.12606 2.94731 3.6842 3.32175 3.32175C3.68443 2.94813 4.12627 2.66057 4.61475 2.48025C5.28385 2.23209 5.99066 2.10092 6.70425 2.0925C7.89 2.0385 8.25 2.025 11.25 2.025ZM11.25 0C8.1945 0 7.81125 0.01275 6.612 0.0675C5.67842 0.0872795 4.7549 0.264782 3.8805 0.5925C3.13032 0.874833 2.45059 1.31707 1.8885 1.8885C1.31626 2.45037 0.873243 3.13012 0.59025 3.8805C0.262532 4.7549 0.0850295 5.67842 0.06525 6.612C0.01275 7.81125 0 8.1945 0 11.25C0 14.3055 0.01275 14.6888 0.0675 15.888C0.0872796 16.8216 0.264782 17.7451 0.5925 18.6195C0.875493 19.3699 1.31851 20.0496 1.89075 20.6115C2.45262 21.1837 3.13237 21.6268 3.88275 21.9097C4.75715 22.2375 5.68067 22.415 6.61425 22.4347C7.81425 22.4895 8.19675 22.5023 11.2523 22.5023C14.3078 22.5023 14.691 22.4895 15.8903 22.4347C16.8238 22.415 17.7474 22.2375 18.6218 21.9097C19.3688 21.6202 20.0472 21.178 20.6138 20.6115C21.1803 20.045 21.6224 19.3665 21.912 18.6195C22.2397 17.7451 22.4172 16.8216 22.437 15.888C22.4918 14.688 22.5045 14.3055 22.5045 11.25C22.5045 8.1945 22.4918 7.81125 22.437 6.612C22.4172 5.67842 22.2397 4.7549 21.912 3.8805C21.629 3.13012 21.186 2.45037 20.6138 1.8885C20.0519 1.31626 19.3721 0.873243 18.6218 0.59025C17.7474 0.262532 16.8238 0.0850295 15.8903 0.06525C14.6888 0.01275 14.3055 0 11.25 0Z" fill="#121127" fill-opacity="0.32"/>
<path d="M11.25 5.4751C10.1078 5.4751 8.99125 5.8138 8.04156 6.44836C7.09187 7.08293 6.35167 7.98486 5.91457 9.0401C5.47748 10.0953 5.36311 11.2565 5.58594 12.3767C5.80877 13.497 6.35879 14.526 7.16644 15.3336C7.97408 16.1413 9.00309 16.6913 10.1233 16.9141C11.2436 17.137 12.4047 17.0226 13.46 16.5855C14.5152 16.1484 15.4171 15.4082 16.0517 14.4585C16.6863 13.5088 17.025 12.3923 17.025 11.2501C17.025 9.71847 16.4165 8.24958 15.3335 7.16656C14.2505 6.08353 12.7816 5.4751 11.25 5.4751ZM11.25 15.0001C10.5083 15.0001 9.78327 14.7802 9.16659 14.3681C8.54991 13.9561 8.06926 13.3704 7.78543 12.6852C7.5016 11.9999 7.42734 11.2459 7.57203 10.5185C7.71673 9.79108 8.07388 9.12289 8.59833 8.59845C9.12277 8.074 9.79096 7.71685 10.5184 7.57215C11.2458 7.42746 11.9998 7.50172 12.685 7.78555C13.3703 8.06938 13.9559 8.55002 14.368 9.16671C14.78 9.78339 15 10.5084 15 11.2501C15 12.2447 14.6049 13.1985 13.9016 13.9017C13.1984 14.605 12.2445 15.0001 11.25 15.0001Z" fill="#121127" fill-opacity="0.32"/>
<path d="M17.2552 6.59478C18.0008 6.59478 18.6052 5.99036 18.6052 5.24478C18.6052 4.49919 18.0008 3.89478 17.2552 3.89478C16.5097 3.89478 15.9052 4.49919 15.9052 5.24478C15.9052 5.99036 16.5097 6.59478 17.2552 6.59478Z" fill="#121127" fill-opacity="0.32"/>
</svg>
