<svg width="150" height="151" viewBox="0 0 150 151" fill="none" xmlns="http://www.w3.org/2000/svg">
<path d="M124.451 26.2617L133.092 32.2943C135.78 34.1704 135.194 38.305 132.091 39.3608L122.309 42.6898C119.102 43.7811 116.076 40.6412 117.284 37.4765L118.311 34.7848C118.545 34.1734 118.624 33.5141 118.544 32.8647L118.192 30.0351C117.765 26.5978 121.611 24.279 124.451 26.2617Z" fill="#FFBB24"/>
<path opacity="0.2" d="M115.787 33.5403C56.4055 28.5599 13.095 71.4274 48.7379 100.59C61.3804 110.934 77.0879 109.784 86.6656 100.207C97.3926 89.4796 98.925 71.8566 88.198 61.1296C64.4453 37.3769 6.59596 62.2789 48.3548 149.244" stroke="#F15060" stroke-width="2" stroke-linecap="round" stroke-dasharray="5.2 5.2"/>
</svg>
