<svg width="24" height="20" viewBox="0 0 24 20" fill="none" xmlns="http://www.w3.org/2000/svg">
<path d="M24 2.325C23.1 2.7 22.2 3 21.15 3.075C22.2 2.475 22.95 1.5 23.325 0.375C22.35 0.975 21.3 1.35 20.175 1.575C19.275 0.6 18 0 16.65 0C13.95 0 11.7 2.175 11.7 4.95C11.7 5.325 11.775 5.7 11.85 6.075C7.72502 5.85 4.12502 3.9 1.65002 0.9C1.20002 1.65 0.975018 2.475 0.975018 3.375C0.975018 5.1 1.87502 6.6 3.15002 7.5C2.32502 7.5 1.57502 7.275 0.900018 6.9V6.975C0.900018 9.375 2.62502 11.325 4.87502 11.775C4.42502 11.85 4.05002 11.925 3.60002 11.925C3.30002 11.925 3.00002 11.925 2.70002 11.85C3.30002 13.8 5.17502 15.225 7.27502 15.3C5.62502 16.65 3.45002 17.4 1.12502 17.4C0.750018 17.4 0.300018 17.4 -0.0749817 17.325C2.17502 18.675 4.80002 19.5 7.57502 19.5C16.65 19.5 21.6 12 21.6 5.475C21.6 5.25 21.6 5.025 21.6 4.875C22.5 4.125 23.325 3.3 24 2.325Z" fill="#121127" fill-opacity="0.32"/>
</svg>
